<svg width="207" height="195" viewBox="0 0 207 195" fill="none" xmlns="http://www.w3.org/2000/svg">
<path d="M114.75 76.9399C110.525 76.9399 105.975 77.8066 102.833 80.1899C99.6917 77.8066 95.1417 76.9399 90.9167 76.9399C87.775 76.9399 84.4383 77.4166 81.6433 78.6516C80.0617 79.3666 79 80.9049 79 82.6599V107.1C79 109.917 81.6433 111.997 84.3733 111.303C86.4967 110.762 88.75 110.523 90.9167 110.523C94.2967 110.523 97.8933 111.087 100.797 112.517C102.097 113.167 103.57 113.167 104.848 112.517C107.752 111.065 111.348 110.523 114.728 110.523C116.895 110.523 119.148 110.762 121.272 111.303C124.002 112.018 126.645 109.938 126.645 107.1V82.6599C126.645 80.9049 125.583 79.3666 124.002 78.6516C121.228 77.4166 117.892 76.9399 114.75 76.9399ZM122.333 104.522C122.333 105.887 121.077 106.883 119.733 106.645C118.108 106.342 116.418 106.212 114.75 106.212C111.067 106.212 105.758 107.62 102.833 109.462V84.5233C105.758 82.6816 111.067 81.2733 114.75 81.2733C116.743 81.2733 118.715 81.4683 120.6 81.8799C121.597 82.0966 122.333 82.9849 122.333 84.0033V104.522Z" fill="#8A8A8A"/>
<path d="M107.123 91.045C106.43 91.045 105.802 90.6116 105.585 89.9183C105.303 89.0733 105.78 88.1416 106.625 87.8816C109.962 86.7983 114.273 86.4516 118.238 86.9066C119.127 87.015 119.777 87.8166 119.668 88.705C119.56 89.5933 118.758 90.2433 117.87 90.135C114.36 89.7233 110.525 90.0483 107.622 90.98C107.448 91.0016 107.275 91.045 107.123 91.045Z" fill="#8A8A8A"/>
<path d="M107.123 96.8082C106.43 96.8082 105.802 96.3748 105.585 95.6815C105.303 94.8365 105.78 93.9048 106.625 93.6448C109.94 92.5615 114.273 92.2148 118.238 92.6698C119.127 92.7782 119.777 93.5798 119.668 94.4682C119.56 95.3565 118.758 96.0065 117.87 95.8982C114.36 95.4865 110.525 95.8115 107.622 96.7432C107.448 96.7865 107.275 96.8082 107.123 96.8082Z" fill="#8A8A8A"/>
<path d="M107.123 102.572C106.43 102.572 105.802 102.138 105.585 101.445C105.303 100.6 105.78 99.6682 106.625 99.4082C109.94 98.3249 114.273 97.9782 118.238 98.4332C119.127 98.5416 119.777 99.3432 119.668 100.232C119.56 101.12 118.758 101.748 117.87 101.662C114.36 101.25 110.525 101.575 107.622 102.507C107.448 102.55 107.275 102.572 107.123 102.572Z" fill="#8A8A8A"/>
<path fill-rule="evenodd" clip-rule="evenodd" d="M59 90.8622C59 55.4396 59 53.9997 104.79 54C126.16 54.0002 136.449 54.0002 141.402 59.1408C146 63.9131 146 73.1159 146 90.8622C146 115.434 146 127.181 140.14 132.654C134.773 137.668 124.49 137.418 104.79 136.94C81.9426 136.94 70.4953 136.94 64.7597 131.216C59 125.469 59 113.949 59 90.8622ZM63 91.1778C63 59.238 63 57.9396 104.579 57.9399C124.028 57.9401 133.369 57.9401 137.855 62.6068C142 66.9188 142 75.2153 142 91.1778C142 113.285 142 123.879 136.715 128.828C131.851 133.382 122.512 133.157 104.579 132.725C83.7842 132.725 73.3895 132.725 68.1934 127.528C63 122.333 63 111.946 63 91.1778Z" fill="#8A8A8A"/>
</svg>
