<?xml version="1.0" encoding="UTF-8"?>
<svg id="_Слой_1" data-name="Слой 1" xmlns="http://www.w3.org/2000/svg" viewBox="0 0 198.22 150.04">
  <defs>
    <style>
      .cls-1 {
        fill: #8a8a8a;
      }
    </style>
  </defs>
  <path class="cls-1" d="M148.73,0c-17.58,0-36.51,3.61-49.58,13.52C86.08,3.61,67.15,0,49.58,0,36.51,0,22.62,1.98,11,7.12,4.42,10.1,0,16.5,0,23.8V125.48c0,11.72,11,20.37,22.35,17.49,8.83-2.25,18.21-3.25,27.22-3.25,14.06,0,29.02,2.35,41.11,8.3,5.41,2.7,11.54,2.7,16.85,0,12.08-6.04,27.04-8.3,41.1-8.3,9.02,0,18.39,.99,27.23,3.25,11.36,2.97,22.35-5.68,22.35-17.49V23.8c0-7.3-4.42-13.7-11-16.68-11.54-5.14-25.42-7.12-38.49-7.12Zm31.55,114.75c0,5.68-5.23,9.82-10.82,8.83-6.76-1.26-13.79-1.8-20.73-1.8-15.32,0-37.41,5.86-49.58,13.52V31.55c12.17-7.66,34.26-13.52,49.58-13.52,8.29,0,16.5,.81,24.34,2.52,4.15,.9,7.21,4.6,7.21,8.83V114.75Z"/>
  <path class="cls-1" d="M117,58.68c-2.88,0-5.5-1.8-6.4-4.69-1.17-3.52,.81-7.39,4.33-8.47,13.88-4.51,31.82-5.95,48.31-4.06,3.7,.45,6.4,3.79,5.95,7.48-.45,3.7-3.79,6.4-7.48,5.95-14.6-1.71-30.56-.36-42.63,3.52-.72,.09-1.44,.27-2.08,.27Z"/>
  <path class="cls-1" d="M117,82.66c-2.88,0-5.5-1.8-6.4-4.69-1.17-3.52,.81-7.39,4.33-8.47,13.79-4.51,31.82-5.95,48.31-4.06,3.7,.45,6.4,3.79,5.95,7.48-.45,3.7-3.79,6.4-7.48,5.95-14.6-1.71-30.56-.36-42.63,3.52-.72,.18-1.44,.27-2.08,.27Z"/>
  <path class="cls-1" d="M117,106.64c-2.88,0-5.5-1.81-6.4-4.69-1.17-3.52,.81-7.39,4.33-8.47,13.79-4.51,31.82-5.95,48.31-4.06,3.7,.45,6.4,3.79,5.95,7.48-.45,3.69-3.79,6.31-7.48,5.95-14.6-1.71-30.56-.36-42.63,3.52-.72,.18-1.44,.27-2.08,.27Z"/>
</svg>